# xmcd
#
# Track frame offsets:
#	150
#	25780
#	41537
#	67417
#	90640
#	116090
#	140407
#	163575
#	181407
#	200302
#
# Disc length: 2937 seconds
#
# Revision: 1
# Processed by: cddbd v1.5.2PL0 Copyright (c) Steve Scherf et al.
# Submitted via: EZCDAudioConverter 8.0.2.1
#
DISCID=8a0b770a
DTITLE=Hương Lan, Hoàng Dũng - Chuyện Hoa Sim Tím
DYEAR=1994
DGENRE=blues
TTITLE0=Hoàng Dũng - Chuyện Hoa Sim Tím
TTITLE1=Hoàng Dũng - Hổng yêu
TTITLE2=Hương Lan - Ăn năn
TTITLE3=Hoàng Dũng - Ru con thuyền mộng
TTITLE4=Hoàng Dũng - Em đi xa
TTITLE5=Hương Lan - Dối lòng
TTITLE6=Hoàng Dũng - Lời tình viết vội
TTITLE7=Hoàng Dũng - Cà phê đắng
TTITLE8=Hương Lan - Ru em trong giấc ngủ
TTITLE9=Hoàng Dũng - Nỗi buồn sa mạc
EXTD=
EXTT0=
EXTT1=
EXTT2=
EXTT3=
EXTT4=
EXTT5=
EXTT6=
EXTT7=
EXTT8=
EXTT9=
PLAYORDER=
